<?xml version="1.0" encoding="UTF-8" standalone="no"?>
<!DOCTYPE svg PUBLIC "-//W3C//DTD SVG 1.1//EN" "http://www.w3.org/Graphics/SVG/1.1/DTD/svg11.dtd">
<svg width="100%" height="100%" viewBox="0 0 441 579" version="1.1" xmlns="http://www.w3.org/2000/svg" xmlns:xlink="http://www.w3.org/1999/xlink" xml:space="preserve" xmlns:serif="http://www.serif.com/" style="fill-rule:evenodd;clip-rule:evenodd;stroke-linejoin:round;stroke-miterlimit:2;">
    <g transform="matrix(1,0,0,1,-1606.403348,-2790.595408)">
        <g id="j" transform="matrix(0.905844,0,0,0.905844,331.010182,827.67107)">
            <path d="M1718.642,2256.906C1776.37,2254.841 1807.465,2294.378 1823.49,2370.149C1837.372,2435.781 1793.195,2489.966 1796.49,2565.51C1797.822,2596.036 1837.963,2640.786 1738,2715.623C1688.12,2752.965 1708.474,2760.026 1661.699,2791.151C1621.142,2818.138 1549.016,2807.658 1522.51,2766.358C1491.015,2717.286 1498.749,2726.37 1457.35,2704.016C1425.749,2686.953 1386.732,2597.479 1421.755,2572.245C1478.834,2531.12 1469.647,2545.331 1501.774,2501.623C1513.723,2485.366 1584.449,2470.427 1600.132,2517.623C1612.569,2555.049 1624.924,2581.147 1595.524,2602.316C1571.214,2619.82 1542.986,2598.96 1526,2596C1505.586,2592.442 1507.719,2624.184 1527.003,2623.558C1576.659,2621.946 1593.903,2637.997 1621.059,2649.019C1643.239,2658.021 1671.927,2618.785 1665.49,2583.623C1648.289,2489.647 1673.722,2486.454 1695,2456.264C1719.266,2421.834 1704.042,2392.442 1680.793,2357.019C1641.588,2297.285 1683.755,2258.154 1718.642,2256.906Z" style="fill:rgb(45,4,0);"/>
        </g>
        <g id="stern" transform="matrix(1.039258,0.23121,-0.23121,1.039258,1573.825815,-1070.189004)">
            <path d="M1076.458,3496.916C1077.034,3495.669 1078.46,3495.06 1079.759,3495.507C1081.058,3495.954 1081.808,3497.311 1081.495,3498.649C1074.406,3528.925 1063.183,3576.862 1060.042,3590.275C1059.883,3590.956 1060.121,3591.67 1060.659,3592.118C1061.196,3592.566 1061.941,3592.672 1062.582,3592.392C1078.21,3585.577 1144.375,3556.723 1184.256,3539.332C1185.536,3538.774 1187.03,3539.293 1187.688,3540.525C1188.346,3541.756 1187.946,3543.287 1186.771,3544.04C1152.422,3566.048 1097.306,3601.363 1082.445,3610.885C1081.813,3611.29 1081.489,3612.036 1081.623,3612.774C1081.758,3613.512 1082.325,3614.096 1083.059,3614.252C1102.672,3618.414 1183.153,3635.494 1231.247,3645.7C1232.621,3645.992 1233.536,3647.296 1233.343,3648.687C1233.15,3650.078 1231.914,3651.084 1230.512,3650.99C1182.664,3647.786 1103.65,3642.496 1083.463,3641.144C1082.699,3641.093 1081.982,3641.518 1081.661,3642.213C1081.339,3642.909 1081.48,3643.73 1082.014,3644.279C1096.444,3659.114 1153.951,3718.235 1188.485,3753.737C1189.465,3754.745 1189.499,3756.339 1188.562,3757.387C1187.625,3758.436 1186.037,3758.581 1184.926,3757.719C1145.395,3727.08 1079.22,3675.787 1062.915,3663.15C1062.315,3662.684 1061.49,3662.634 1060.837,3663.022C1060.184,3663.411 1059.835,3664.159 1059.957,3664.909C1063.009,3683.65 1074.61,3754.868 1081.747,3798.679C1081.972,3800.062 1081.093,3801.385 1079.731,3801.712C1078.369,3802.04 1076.984,3801.262 1076.556,3799.928C1062.332,3755.649 1038.638,3681.883 1032.95,3664.178C1032.728,3663.485 1032.12,3662.987 1031.397,3662.905C1030.675,3662.824 1029.971,3663.173 1029.599,3663.798C1021.682,3677.12 993.135,3725.156 975.113,3755.479C974.405,3756.671 972.905,3757.125 971.655,3756.526C970.405,3755.927 969.819,3754.474 970.304,3753.176C983.77,3717.102 1006.079,3657.342 1011.183,3643.668C1011.409,3643.064 1011.303,3642.385 1010.904,3641.878C1010.505,3641.37 1009.87,3641.108 1009.229,3641.185C997.598,3642.586 955.001,3647.718 928.602,3650.898C927.259,3651.059 926.007,3650.195 925.683,3648.882C925.358,3647.57 926.064,3646.221 927.327,3645.739C954.378,3635.411 999.995,3617.994 1010.186,3614.103C1010.697,3613.908 1011.095,3613.496 1011.274,3612.98C1011.453,3612.463 1011.394,3611.893 1011.113,3611.424C1005.821,3602.589 983.234,3564.879 969.878,3542.58C969.19,3541.433 969.456,3539.954 970.499,3539.117C971.542,3538.279 973.043,3538.341 974.015,3539.26C992.123,3556.403 1022.084,3584.768 1029.825,3592.095C1030.257,3592.505 1030.861,3592.681 1031.446,3592.569C1032.031,3592.456 1032.526,3592.068 1032.776,3591.528C1038.122,3579.948 1062.073,3528.073 1076.458,3496.916Z" style="fill:rgb(210,185,211);"/>
        </g>
    </g>
</svg>
